<svg width="24" height="24" viewBox="0 0 24 24" fill="none" xmlns="http://www.w3.org/2000/svg">
<path d="M21 12V19C21 19.5304 20.7893 20.0391 20.4142 20.4142C20.0391 20.7893 19.5304 21 19 21H5C4.46957 21 3.96086 20.7893 3.58579 20.4142C3.21071 20.0391 3 19.5304 3 19V5C3 4.46957 3.21071 3.96086 3.58579 3.58579C3.96086 3.21071 4.46957 3 5 3H12" stroke="#5F33E1" stroke-width="2" stroke-linecap="round" stroke-linejoin="round"/>
<path d="M16 5H22" stroke="#5F33E1" stroke-width="2" stroke-linecap="round" stroke-linejoin="round"/>
<path d="M19 2V8" stroke="#5F33E1" stroke-width="2" stroke-linecap="round" stroke-linejoin="round"/>
<path d="M9 11C10.1046 11 11 10.1046 11 9C11 7.89543 10.1046 7 9 7C7.89543 7 7 7.89543 7 9C7 10.1046 7.89543 11 9 11Z" stroke="#5F33E1" stroke-width="2" stroke-linecap="round" stroke-linejoin="round"/>
<path d="M21 15L17.914 11.914C17.5389 11.5391 17.0303 11.3284 16.5 11.3284C15.9697 11.3284 15.4611 11.5391 15.086 11.914L6 21" stroke="#5F33E1" stroke-width="2" stroke-linecap="round" stroke-linejoin="round"/>
</svg>
