<svg width="19" height="12" viewBox="0 0 19 12" fill="none" xmlns="http://www.w3.org/2000/svg">
<path fill-rule="evenodd" clip-rule="evenodd" d="M8.33503 6.00661L8.33656 6.3607C8.34872 7.76518 8.43338 9.01826 8.57939 9.81237C8.57939 9.82669 8.73866 10.6143 8.84012 10.8764C8.99939 11.2554 9.28738 11.577 9.64847 11.7808C9.93756 11.9262 10.2408 12 10.5583 12C10.8078 11.9884 11.2194 11.8629 11.5131 11.7576L11.7572 11.664C13.3739 11.0218 16.4644 8.92344 17.648 7.64017L17.7353 7.55047L18.1247 7.13016C18.3702 6.80852 18.5 6.41527 18.5 5.99229C18.5 5.61337 18.3844 5.23444 18.1531 4.92822C18.0839 4.82901 17.9723 4.70173 17.8731 4.59419L17.494 4.19739C16.1895 2.87572 13.3652 1.02183 11.9012 0.407564C11.9012 0.394346 10.9914 0.0143194 10.5583 0H10.5005C9.83611 0 9.21539 0.378924 8.89793 0.991371C8.81121 1.1588 8.72803 1.48678 8.66476 1.77483L8.55103 2.31871C8.42121 3.19332 8.33503 4.53497 8.33503 6.00661ZM2.00325 4.48166C1.17308 4.48166 0.5 5.1613 0.5 5.99956C0.5 6.83782 1.17308 7.51746 2.00325 7.51746L5.70248 7.19031C6.35375 7.19031 6.88174 6.65827 6.88174 5.99956C6.88174 5.34195 6.35375 4.80881 5.70248 4.80881L2.00325 4.48166Z" fill="white"/>
</svg>
