<svg width="25" height="24" viewBox="0 0 25 24" fill="none" xmlns="http://www.w3.org/2000/svg">
<path d="M16.5 2H12.5C9.67157 2 8.25736 2 7.37868 2.94627C6.5 3.89254 6.5 5.41554 6.5 8.46154V9.53846C6.5 12.5845 6.5 14.1075 7.37868 15.0537C8.25736 16 9.67157 16 12.5 16H16.5C19.3284 16 20.7426 16 21.6213 15.0537C22.5 14.1075 22.5 12.5845 22.5 9.53846V8.46154C22.5 5.41554 22.5 3.89254 21.6213 2.94627C20.7426 2 19.3284 2 16.5 2Z" stroke="#5F33E1" stroke-width="1.5"/>
<path d="M18.5 16.6082C18.4879 18.9537 18.3914 20.2239 17.623 21.0525C16.7442 22 15.3298 22 12.5011 22H8.50065C5.67192 22 4.25755 22 3.37878 21.0525C2.5 20.1049 2.5 18.5799 2.5 15.5298V14.4515C2.5 11.4014 2.5 9.87638 3.37878 8.92885C4.02015 8.2373 4.94682 8.05047 6.50043 8" stroke="#5F33E1" stroke-width="1.5"/>
</svg>
