<svg width="24" height="24" viewBox="0 0 24 24" fill="none" xmlns="http://www.w3.org/2000/svg">
<path d="M12 22C17.5228 22 22 17.5228 22 12C22 6.47715 17.5228 2 12 2C6.47715 2 2 6.47715 2 12C2 17.5228 6.47715 22 12 22Z" stroke="black" stroke-width="1.5"/>
<path d="M7.5 17C9.8317 14.5578 14.1432 14.4428 16.5 17M14.4951 9.5C14.4951 10.8807 13.3742 12 11.9915 12C10.6089 12 9.48797 10.8807 9.48797 9.5C9.48797 8.11929 10.6089 7 11.9915 7C13.3742 7 14.4951 8.11929 14.4951 9.5Z" stroke="black" stroke-width="1.5" stroke-linecap="round"/>
</svg>
